<?xml version="1.0" encoding="UTF-8"?>
<svg xmlns="http://www.w3.org/2000/svg" xmlns:xlink="http://www.w3.org/1999/xlink" width="16px" height="16px" viewBox="0 0 4 4" version="1.1">
<g id="surface1">
<path style=" stroke:none;fill-rule:nonzero;fill:rgb(0%,0%,0%);fill-opacity:1;" d="M 1.378906 0.0898438 C 1.394531 0.0351562 1.445312 0 1.5 0 L 2.5 0 C 2.539062 0 2.578125 0.0195312 2.601562 0.0507812 C 2.625 0.0859375 2.632812 0.125 2.617188 0.164062 L 2.171875 1.5 L 3.125 1.5 C 3.171875 1.5 3.214844 1.527344 3.238281 1.570312 C 3.257812 1.613281 3.253906 1.664062 3.222656 1.703125 L 1.472656 3.953125 C 1.4375 4 1.371094 4.015625 1.316406 3.984375 C 1.261719 3.957031 1.238281 3.894531 1.253906 3.839844 L 1.707031 2.375 L 0.875 2.375 C 0.835938 2.375 0.796875 2.355469 0.773438 2.324219 C 0.75 2.292969 0.742188 2.253906 0.753906 2.214844 Z M 1.59375 0.25 L 1.042969 2.125 L 1.875 2.125 C 1.914062 2.125 1.953125 2.144531 1.976562 2.175781 C 2 2.207031 2.007812 2.25 1.996094 2.285156 L 1.695312 3.261719 L 2.871094 1.75 L 2 1.75 C 1.960938 1.75 1.921875 1.730469 1.898438 1.699219 C 1.875 1.664062 1.867188 1.625 1.882812 1.585938 L 2.328125 0.25 Z M 1.59375 0.25 "/>
</g>
</svg>
