<?xml version="1.0" encoding="UTF-8"?>
<svg xmlns="http://www.w3.org/2000/svg" fill="none" viewBox="0 0 24 24"><path fill="#000" d="M3 1.75c.69 0 1.25.56 1.25 1.25v10.354l5.477-5.476.102-.093a1.35 1.35 0 0 1 1.807.093l3.459 3.46 5.049-4.748a1.25 1.25 0 0 1 1.712 1.82l-5.86 5.515a1.35 1.35 0 0 1-1.88-.03L10.68 10.46l-6.296 6.297-.095.086q-.019.014-.039.028v2.144c0 .414.336.75.75.75h16.073l.127.006a1.251 1.251 0 0 1 0 2.487l-.127.007H5a3.25 3.25 0 0 1-3.25-3.25V3c0-.69.56-1.25 1.25-1.25" style="fill: #e20074;"/></svg>
