<?xml version="1.0" encoding="UTF-8"?>
<svg xmlns="http://www.w3.org/2000/svg" xmlns:xlink="http://www.w3.org/1999/xlink" width="2px" height="2px" viewBox="0 0 2 2" version="1.1">
<g id="surface1">
<path style=" stroke:none;fill-rule:nonzero;fill:rgb(0%,0%,0%);fill-opacity:1;" d="M 1 0.5 C 1.035156 0.5 1.0625 0.527344 1.0625 0.5625 L 1.0625 0.75 C 1.0625 0.785156 1.035156 0.8125 1 0.8125 C 0.964844 0.8125 0.9375 0.785156 0.9375 0.75 L 0.9375 0.5625 C 0.9375 0.527344 0.964844 0.5 1 0.5 M 0.464844 0.714844 C 0.492188 0.691406 0.53125 0.691406 0.554688 0.714844 L 0.667969 0.832031 C 0.695312 0.855469 0.695312 0.894531 0.667969 0.917969 C 0.644531 0.945312 0.605469 0.945312 0.582031 0.917969 L 0.464844 0.804688 C 0.441406 0.78125 0.441406 0.742188 0.464844 0.714844 M 0.25 1.25 C 0.25 1.214844 0.277344 1.1875 0.3125 1.1875 L 0.511719 1.1875 C 0.546875 1.1875 0.574219 1.214844 0.574219 1.25 C 0.574219 1.285156 0.546875 1.3125 0.511719 1.3125 L 0.3125 1.3125 C 0.277344 1.3125 0.25 1.285156 0.25 1.25 M 1.4375 1.25 C 1.4375 1.214844 1.464844 1.1875 1.5 1.1875 L 1.6875 1.1875 C 1.722656 1.1875 1.75 1.214844 1.75 1.25 C 1.75 1.285156 1.722656 1.3125 1.6875 1.3125 L 1.5 1.3125 C 1.464844 1.3125 1.4375 1.285156 1.4375 1.25 M 1.53125 0.71875 C 1.515625 0.703125 1.484375 0.699219 1.464844 0.714844 L 0.945312 1.164062 C 0.910156 1.191406 0.894531 1.234375 0.90625 1.277344 C 0.917969 1.320312 0.949219 1.351562 0.992188 1.363281 C 1.035156 1.371094 1.078125 1.355469 1.105469 1.320312 L 1.535156 0.785156 C 1.550781 0.765625 1.550781 0.738281 1.53125 0.71875 Z M 1.53125 0.71875 "/>
<path style=" stroke:none;fill-rule:evenodd;fill:rgb(0%,0%,0%);fill-opacity:1;" d="M 0 1.25 C 0 0.851562 0.238281 0.492188 0.601562 0.332031 C 0.964844 0.175781 1.390625 0.246094 1.679688 0.519531 C 1.972656 0.789062 2.074219 1.207031 1.945312 1.582031 C 1.886719 1.738281 1.710938 1.78125 1.578125 1.738281 C 1.414062 1.6875 1.183594 1.625 1 1.625 C 0.816406 1.625 0.585938 1.6875 0.421875 1.738281 C 0.289062 1.78125 0.113281 1.738281 0.0546875 1.582031 C 0.0195312 1.476562 0 1.363281 0 1.25 M 1 0.375 C 0.714844 0.375 0.449219 0.511719 0.285156 0.746094 C 0.121094 0.976562 0.0820312 1.273438 0.175781 1.542969 C 0.199219 1.613281 0.289062 1.652344 0.382812 1.621094 C 0.550781 1.566406 0.792969 1.5 1 1.5 C 1.207031 1.5 1.449219 1.566406 1.617188 1.621094 C 1.710938 1.652344 1.800781 1.613281 1.824219 1.542969 C 1.917969 1.273438 1.878906 0.976562 1.714844 0.746094 C 1.550781 0.511719 1.285156 0.375 1 0.375 "/>
</g>
</svg>
