<?xml version="1.0" encoding="UTF-8"?>
<svg xmlns="http://www.w3.org/2000/svg"
     viewBox="0 0 16 16"
     width="12"
     height="12">
  <g id="surface1">
    <path style="stroke:none;fill-rule:nonzero;fill:#000;fill-opacity:1;" d="M8 4 C8.25 4 8.5 4.25 8.5 4.5 L8.5 6 C8.5 6.25 8.25 6.5 8 6.5 C7.75 6.5 7.5 6.25 7.5 6 L7.5 4.5 C7.5 4.25 7.75 4 8 4 M3.75 5.75 C3.9375 5.5625 4.25 5.5625 4.4375 5.75 L5.375 6.625 C5.5625 6.8125 5.5625 7.25 5.375 7.4375 C5.1875 7.625 4.75 7.625 4.5625 7.4375 L3.75 6.4375 C3.5625 6.25 3.5625 5.9375 3.75 5.75 M2 10 C2 9.75 2.25 9.5 2.5 9.5 L4 9.5 C4.375 9.5 4.5625 9.75 4.5625 10 C4.5625 10.25 4.375 10.5 4 10.5 L2.5 10.5 C2.25 10.5 2 10.25 2 10 M11.5 10 C11.5 9.75 11.75 9.5 12 9.5 L13.5 9.5 C13.75 9.5 14 9.75 14 10 C14 10.25 13.75 10.5 13.5 10.5 L12 10.5 C11.75 10.5 11.5 10.25 11.5 10 M12.25 5.75 C12.125 5.625 11.875 5.625 11.75 5.75 L7.5625 9.3125 C7.3125 9.5625 7.1875 9.875 7.25 10.25 C7.3125 10.5625 7.625 10.8125 7.9375 10.875 C8.3125 10.9375 8.625 10.8125 8.875 10.5625 L12.3125 6.25 C12.375 6.125 12.375 5.875 12.25 5.75 Z M12.25 5.75"/>
    <path style="stroke:none;fill-rule:evenodd;fill:#000;fill-opacity:1;" d="M0 10 C0 6.8125 1.875 3.9375 4.8125 2.6875 C7.75 1.375 11.125 2 13.4375 4.125 C15.75 6.3125 16.625 9.6875 15.5625 12.6875 C15.125 13.9375 13.6875 14.25 12.625 13.9375 C11.3125 13.5 9.5 13 8 13 C6.5 13 4.6875 13.5 3.375 13.9375 C2.3125 14.25 0.875 13.9375 0.4375 12.6875 C0.125 12 0 11.0625 0 10 M8 3 C5.75 3 3.625 4.125 2.3125 5.9375 C1 7.8125 0.625 10.25 1.375 12.3125 C1.625 13 2.3125 13.25 3.0625 13.0625 C4.375 12.5625 6.375 12 8 12 C9.625 12 11.625 12.5625 12.9375 13.0625 C13.6875 13.25 14.375 13 14.625 12.3125 C15.375 10.25 15 7.8125 13.6875 5.9375 C12.375 4.125 10.25 3 8 3 "/>
  </g>
</svg>
