<?xml version="1.0" encoding="UTF-8"?>
<svg xmlns="http://www.w3.org/2000/svg" xmlns:xlink="http://www.w3.org/1999/xlink" width="4px" height="4px" viewBox="0 0 4 4" version="1.1">
<g id="surface1">
<path style=" stroke:none;fill-rule:nonzero;fill:rgb(0%,0%,0%);fill-opacity:1;" d="M 2 1 C 2.070312 1 2.125 1.054688 2.125 1.125 L 2.125 1.5 C 2.125 1.570312 2.070312 1.625 2 1.625 C 1.929688 1.625 1.875 1.570312 1.875 1.5 L 1.875 1.125 C 1.875 1.054688 1.929688 1 2 1 M 0.933594 1.433594 C 0.980469 1.382812 1.0625 1.382812 1.109375 1.433594 L 1.339844 1.660156 C 1.386719 1.710938 1.386719 1.789062 1.339844 1.839844 C 1.289062 1.886719 1.210938 1.886719 1.160156 1.839844 L 0.933594 1.609375 C 0.882812 1.5625 0.882812 1.480469 0.933594 1.433594 M 0.5 2.5 C 0.5 2.429688 0.554688 2.375 0.625 2.375 L 1.023438 2.375 C 1.089844 2.375 1.148438 2.429688 1.148438 2.5 C 1.148438 2.570312 1.089844 2.625 1.023438 2.625 L 0.625 2.625 C 0.554688 2.625 0.5 2.570312 0.5 2.5 M 2.875 2.5 C 2.875 2.429688 2.929688 2.375 3 2.375 L 3.375 2.375 C 3.445312 2.375 3.5 2.429688 3.5 2.5 C 3.5 2.570312 3.445312 2.625 3.375 2.625 L 3 2.625 C 2.929688 2.625 2.875 2.570312 2.875 2.5 M 3.0625 1.4375 C 3.027344 1.402344 2.96875 1.402344 2.933594 1.433594 L 1.886719 2.328125 C 1.820312 2.382812 1.792969 2.472656 1.8125 2.554688 C 1.832031 2.640625 1.902344 2.707031 1.984375 2.722656 C 2.070312 2.742188 2.160156 2.710938 2.210938 2.640625 L 3.070312 1.566406 C 3.101562 1.527344 3.097656 1.472656 3.0625 1.4375 Z M 3.0625 1.4375 "/>
<path style=" stroke:none;fill-rule:evenodd;fill:rgb(0%,0%,0%);fill-opacity:1;" d="M 0 2.5 C 0 1.703125 0.472656 0.984375 1.203125 0.667969 C 1.933594 0.351562 2.78125 0.496094 3.363281 1.039062 C 3.945312 1.578125 4.152344 2.414062 3.886719 3.164062 C 3.777344 3.476562 3.425781 3.566406 3.152344 3.476562 C 2.828125 3.371094 2.367188 3.25 2 3.25 C 1.632812 3.25 1.171875 3.371094 0.847656 3.476562 C 0.574219 3.566406 0.222656 3.476562 0.113281 3.164062 C 0.0390625 2.953125 0 2.726562 0 2.5 M 2 0.75 C 1.433594 0.75 0.898438 1.023438 0.570312 1.488281 C 0.242188 1.953125 0.160156 2.546875 0.347656 3.082031 C 0.398438 3.226562 0.578125 3.300781 0.769531 3.238281 C 1.097656 3.132812 1.589844 3 2 3 C 2.410156 3 2.902344 3.132812 3.230469 3.238281 C 3.421875 3.300781 3.601562 3.226562 3.652344 3.082031 C 3.839844 2.546875 3.757812 1.953125 3.429688 1.488281 C 3.101562 1.023438 2.566406 0.75 2 0.75 "/>
</g>
</svg>
