<?xml version="1.0" encoding="UTF-8"?>
<svg xmlns="http://www.w3.org/2000/svg" xmlns:xlink="http://www.w3.org/1999/xlink" viewBox="0 0 4 4" version="1.1">
<g id="surface1">
<path style=" stroke:none;fill-rule:nonzero;fill:rgb(0%,0%,0%);fill-opacity:1;" d="M 0.5 0.25 C 0.515625 0.25 0.53125 0.265625 0.53125 0.28125 L 0.53125 0.375 C 0.53125 0.390625 0.515625 0.40625 0.5 0.40625 C 0.484375 0.40625 0.46875 0.390625 0.46875 0.375 L 0.46875 0.28125 C 0.46875 0.265625 0.484375 0.25 0.5 0.25 M 0.234375 0.359375 C 0.246094 0.347656 0.265625 0.347656 0.277344 0.359375 L 0.335938 0.414062 C 0.347656 0.425781 0.347656 0.449219 0.335938 0.460938 C 0.324219 0.472656 0.300781 0.472656 0.289062 0.460938 L 0.234375 0.402344 C 0.222656 0.390625 0.222656 0.371094 0.234375 0.359375 M 0.125 0.625 C 0.125 0.609375 0.140625 0.59375 0.15625 0.59375 L 0.253906 0.59375 C 0.273438 0.59375 0.285156 0.609375 0.285156 0.625 C 0.285156 0.640625 0.273438 0.65625 0.253906 0.65625 L 0.15625 0.65625 C 0.140625 0.65625 0.125 0.640625 0.125 0.625 M 0.71875 0.625 C 0.71875 0.609375 0.734375 0.59375 0.75 0.59375 L 0.84375 0.59375 C 0.859375 0.59375 0.875 0.609375 0.875 0.625 C 0.875 0.640625 0.859375 0.65625 0.84375 0.65625 L 0.75 0.65625 C 0.734375 0.65625 0.71875 0.640625 0.71875 0.625 M 0.765625 0.359375 C 0.757812 0.351562 0.742188 0.351562 0.734375 0.359375 L 0.472656 0.582031 C 0.457031 0.597656 0.449219 0.617188 0.453125 0.640625 C 0.457031 0.660156 0.476562 0.675781 0.496094 0.679688 C 0.519531 0.683594 0.539062 0.675781 0.554688 0.660156 L 0.769531 0.390625 C 0.773438 0.382812 0.773438 0.367188 0.765625 0.359375 Z M 0.765625 0.359375 "/>
<path style=" stroke:none;fill-rule:evenodd;fill:rgb(0%,0%,0%);fill-opacity:1;" d="M 0 0.625 C 0 0.425781 0.117188 0.246094 0.300781 0.167969 C 0.484375 0.0859375 0.695312 0.125 0.839844 0.257812 C 0.984375 0.394531 1.039062 0.605469 0.972656 0.792969 C 0.945312 0.871094 0.855469 0.890625 0.789062 0.871094 C 0.707031 0.84375 0.59375 0.8125 0.5 0.8125 C 0.40625 0.8125 0.292969 0.84375 0.210938 0.871094 C 0.144531 0.890625 0.0546875 0.871094 0.0273438 0.792969 C 0.0078125 0.738281 0 0.683594 0 0.625 M 0.5 0.1875 C 0.359375 0.1875 0.226562 0.257812 0.144531 0.371094 C 0.0625 0.488281 0.0390625 0.636719 0.0859375 0.769531 C 0.101562 0.804688 0.144531 0.824219 0.191406 0.808594 C 0.273438 0.785156 0.398438 0.75 0.5 0.75 C 0.601562 0.75 0.726562 0.785156 0.808594 0.808594 C 0.855469 0.824219 0.898438 0.804688 0.914062 0.769531 C 0.960938 0.636719 0.9375 0.488281 0.855469 0.371094 C 0.773438 0.257812 0.640625 0.1875 0.5 0.1875 "/>
</g>
</svg>
