<?xml version="1.0" encoding="UTF-8"?>
<svg xmlns="http://www.w3.org/2000/svg" xmlns:xlink="http://www.w3.org/1999/xlink" width="8px" height="8px" viewBox="0 0 8 8" version="1.1">
<g id="surface1">
<path style=" stroke:none;fill-rule:nonzero;fill:rgb(0%,0%,0%);fill-opacity:1;" d="M 4 2 C 4.136719 2 4.25 2.113281 4.25 2.25 L 4.25 3 C 4.25 3.136719 4.136719 3.25 4 3.25 C 3.863281 3.25 3.75 3.136719 3.75 3 L 3.75 2.25 C 3.75 2.113281 3.863281 2 4 2 M 1.867188 2.867188 C 1.964844 2.769531 2.121094 2.769531 2.21875 2.867188 L 2.675781 3.324219 C 2.773438 3.421875 2.773438 3.578125 2.675781 3.675781 C 2.578125 3.773438 2.421875 3.773438 2.324219 3.675781 L 1.867188 3.21875 C 1.769531 3.121094 1.769531 2.964844 1.867188 2.867188 M 1 5 C 1 4.863281 1.113281 4.75 1.25 4.75 L 2.042969 4.75 C 2.179688 4.75 2.292969 4.863281 2.292969 5 C 2.292969 5.136719 2.179688 5.25 2.042969 5.25 L 1.25 5.25 C 1.113281 5.25 1 5.136719 1 5 M 5.75 5 C 5.75 4.863281 5.863281 4.75 6 4.75 L 6.75 4.75 C 6.886719 4.75 7 4.863281 7 5 C 7 5.136719 6.886719 5.25 6.75 5.25 L 6 5.25 C 5.863281 5.25 5.75 5.136719 5.75 5 M 6.128906 2.878906 C 6.054688 2.804688 5.941406 2.800781 5.863281 2.867188 L 3.773438 4.65625 C 3.640625 4.765625 3.582031 4.945312 3.625 5.113281 C 3.667969 5.28125 3.800781 5.410156 3.972656 5.449219 C 4.140625 5.484375 4.316406 5.421875 4.425781 5.285156 L 6.140625 3.136719 C 6.203125 3.058594 6.195312 2.945312 6.128906 2.875 Z M 6.128906 2.878906 "/>
<path style=" stroke:none;fill-rule:evenodd;fill:rgb(0%,0%,0%);fill-opacity:1;" d="M 0 5 C 0 3.410156 0.945312 1.96875 2.40625 1.335938 C 3.863281 0.699219 5.558594 0.992188 6.722656 2.074219 C 7.890625 3.160156 8.300781 4.828125 7.773438 6.332031 C 7.550781 6.957031 6.851562 7.132812 6.308594 6.957031 C 5.65625 6.742188 4.738281 6.5 4 6.5 C 3.261719 6.5 2.34375 6.742188 1.691406 6.957031 C 1.148438 7.132812 0.449219 6.957031 0.226562 6.332031 C 0.078125 5.902344 0 5.453125 0 5 M 4 1.5 C 2.863281 1.5 1.796875 2.050781 1.140625 2.976562 C 0.484375 3.90625 0.320312 5.09375 0.699219 6.164062 C 0.800781 6.453125 1.160156 6.601562 1.539062 6.480469 C 2.199219 6.265625 3.179688 6 4 6 C 4.820312 6 5.800781 6.265625 6.460938 6.480469 C 6.839844 6.601562 7.199219 6.453125 7.300781 6.164062 C 7.679688 5.09375 7.515625 3.90625 6.859375 2.976562 C 6.203125 2.050781 5.136719 1.5 4 1.5 "/>
</g>
</svg>
